# xmcd
#
# Track frame offsets:
#	182
#	10865
#	29247
#	43370
#	56065
#	69927
#	88577
#	106452
#	117917
#	142440
#	159510
#	173285
#
# Disc length: 2537
#
# Revision: 4
# Processed by: cddbd v1.5.1PL0 Copyright (c) Steve Scherf et al.
# Submitted via: CDex 1.40Release
# Normalized: r3:TDELIM( - )
#
DISCID=a809e70c
DTITLE=Various Artist - Justice Country
DYEAR=1996
DGENRE=Country
TTITLE0=Waylon Jennings - I Never Cared For You
TTITLE1=Willie Nelson and Kimmie Rhodes - Just One Love
TTITLE2=Shaver - Comin' On Strong
TTITLE3=Jesse Dayton - Kissing Abilene Goodbye
TTITLE4=Kimmie Rhodes - West Texas Heaven
TTITLE5=Kris Kristofferson - A Moment Of Forever
TTITLE6=Carolyn Wonderland and The Imperial Monkeys - Wastin' My Time
TTITLE7=Willie Nelson - Afraid
TTITLE8=Herb Ellis - The Old Rugged Cross
TTITLE9=Tab Benoit - Rainy Day Blues
TTITLE10=Waylon Jennings - WBPT
TTITLE11=Willie Nelson - Me And Paul
EXTD=YEAR: 1996 ID3G: 2
EXTT0=Waylon Jennings
EXTT1=Willie Nelson and Kimmie Rhodes
EXTT2=Shaver
EXTT3=Jesse Dayton
EXTT4=Kimmie Rhodes
EXTT5=Kris Kristofferson
EXTT6=Carolyn Wonderland And The Imperial Monkeys
EXTT7=Willie Nelson
EXTT8=Herb Ellis
EXTT9=Tab Benoit
EXTT10=Waylon Jennings
EXTT11=Willie Nelson
PLAYORDER=
